<svg width="120" height="38" viewBox="0 0 120 38" fill="none" xmlns="http://www.w3.org/2000/svg">
<g clip-path="url(#clip0)">
<path d="M101.771 37.715L110.084 30.59C110.462 30.267 110.599 29.7374 110.426 29.2743C110.253 28.8088 109.808 28.5 109.312 28.5L105.609 28.5L102.178 1.04025C102.104 0.4465 101.598 -3.89117e-07 101 -4.15278e-07C100.401 -4.41439e-07 99.8952 0.4465 99.8215 1.04025L96.3897 28.5L92.687 28.5C92.1907 28.5 91.7465 28.8087 91.5732 29.2742C91.5233 29.4096 91.4995 29.5474 91.4995 29.6875C91.4995 30.0295 91.6468 30.3596 91.9152 30.59L100.228 37.715C100.672 38.095 101.327 38.095 101.771 37.715Z" fill="#0097EB"/>
</g>
<g clip-path="url(#clip1)">
<path d="M60.7714 37.715L69.0839 30.59C69.4615 30.267 69.5993 29.7374 69.4259 29.2743C69.2525 28.8088 68.8084 28.5 68.312 28.5L64.6094 28.5L61.1775 1.04025C61.1039 0.4465 60.598 -3.89117e-07 59.9995 -4.15278e-07C59.401 -4.41439e-07 58.8952 0.4465 58.8215 1.04025L55.3897 28.5L51.687 28.5C51.1907 28.5 50.7465 28.8087 50.5732 29.2742C50.5233 29.4096 50.4995 29.5474 50.4995 29.6875C50.4995 30.0295 50.6468 30.3596 50.9152 30.59L59.2277 37.715C59.6718 38.095 60.3273 38.095 60.7714 37.715Z" fill="#0097EB"/>
</g>
<g clip-path="url(#clip2)">
<path d="M19.7714 37.715L28.0839 30.59C28.4615 30.267 28.5993 29.7374 28.4259 29.2743C28.2525 28.8088 27.8084 28.5 27.312 28.5L23.6094 28.5L20.1775 1.04025C20.1039 0.4465 19.598 -3.89117e-07 18.9995 -4.15278e-07C18.401 -4.41439e-07 17.8952 0.4465 17.8215 1.04025L14.3897 28.5L10.687 28.5C10.1907 28.5 9.74654 28.8087 9.57316 29.2742C9.52329 29.4096 9.49954 29.5474 9.49954 29.6875C9.49954 30.0295 9.64679 30.3596 9.91516 30.59L18.2277 37.715C18.6718 38.095 19.3273 38.095 19.7714 37.715Z" fill="#0097EB"/>
</g>
<defs>
<clipPath id="clip0">
<rect width="38" height="38" fill="white" transform="translate(120) rotate(90)"/>
</clipPath>
<clipPath id="clip1">
<rect width="38" height="38" fill="white" transform="translate(79) rotate(90)"/>
</clipPath>
<clipPath id="clip2">
<rect width="38" height="38" fill="white" transform="translate(38) rotate(90)"/>
</clipPath>
</defs>
</svg>
