<svg width="61" height="61" viewBox="0 0 61 61" fill="none" xmlns="http://www.w3.org/2000/svg">
<path d="M21.9219 48.6094H23.8281V50.5156H21.9219V48.6094Z" fill="white"/>
<path d="M53.375 58.1406V23.5517L30.5 8.02246L7.625 23.5517V33.7244C8.99178 33.7244 10.2042 34.5432 10.7169 35.8108C13.0921 41.684 14.2969 45.6699 14.2969 47.6563C14.2969 51.6308 11.896 54.7027 8.57812 55.2021V53.2702C10.7532 52.7869 12.3906 50.6529 12.3906 47.6563C12.3906 45.4221 10.3595 40.0122 8.94889 36.5247C8.46661 35.3324 6.78244 35.3324 6.30016 36.5247C4.89048 40.0122 2.85938 45.4221 2.85938 47.6563C2.85938 50.6538 4.49684 52.7869 6.67188 53.2702V58.1406H1.90625V60.0469H59.0938V58.1406H53.375ZM40.0312 45.75L41.9375 42.8906L43.8438 45.75V48.6094H47.6562V45.75L49.5625 42.8906L51.4688 45.75V58.1406H47.6562V52.4219H43.8438V58.1406H40.0312V52.4219H36.2188V58.1406H32.4062V45.75L34.3125 42.8906L36.2188 45.75V48.6094H40.0312V45.75ZM31.4531 26.6875H36.2188V28.5938C36.2188 30.1731 34.9387 31.4531 33.3594 31.4531H31.4531V26.6875ZM33.3594 20.0156C34.9387 20.0156 36.2188 21.2957 36.2188 22.875V24.7813H31.4531V20.0156H33.3594ZM24.7812 22.875C24.7812 21.2957 26.0613 20.0156 27.6406 20.0156H29.5469V24.7813H24.7812V22.875ZM24.7812 26.6875H29.5469V31.4531H27.6406C26.0613 31.4531 24.7812 30.1731 24.7812 28.5938V26.6875ZM26.6875 40.0313V58.1406H16.2031V40.0313H26.6875Z" fill="white"/>
<path d="M30.5 6.11619L56.1172 23.4993L58.2579 20.3435L30.5 1.50879L2.74219 20.3435L4.88291 23.4993L30.5 6.11619Z" fill="white"/>
</svg>
