<svg width="64" height="64" viewBox="0 0 64 64" fill="none" xmlns="http://www.w3.org/2000/svg">
<path d="M32.7032 53.5402C32.7161 53.5256 32.729 53.511 32.7412 53.4957L54.6315 26.7242C54.908 26.389 54.9094 25.901 54.6526 25.5633L52.4284 22.5177C52.123 22.0994 51.5363 22.0077 51.1178 22.3135C50.6995 22.619 50.6081 23.2057 50.9136 23.624L52.0591 25.1926H41.1544L46.6068 17.7266L47.9922 19.6234C48.2977 20.0417 48.8843 20.1332 49.3028 19.8276C49.7211 19.5221 49.8125 18.9353 49.507 18.517L47.3643 15.583C47.191 15.345 46.9006 15.1966 46.6028 15.1983H17.4118C17.1253 15.1983 16.8201 15.3535 16.6509 15.588L9.36589 25.5634C9.10928 25.9009 9.11065 26.3893 9.38702 26.7243L20.5202 40.34C20.942 40.7495 21.3819 40.7936 21.84 40.4725C22.2411 40.1446 22.3003 39.5537 21.9725 39.1526L12.0916 27.0684H23.9941L29.9453 48.9033L25.2336 43.1409C24.9056 42.74 24.315 42.6807 23.9138 43.0085C23.5128 43.3364 23.4535 43.9272 23.7814 44.3283L31.2778 53.4962C31.6352 53.94 32.32 53.9619 32.7032 53.5402ZM32.0093 49.3425L25.9382 27.0684H38.0802L32.0093 49.3425ZM26.5569 25.1926L32.0093 17.7266L37.4617 25.1926H26.5569ZM24.7105 24.5402L19.2581 17.0741H30.1629L24.7105 24.5402ZM51.9269 27.0684L34.0732 48.9033L40.0244 27.0684H51.9269ZM39.308 24.5402L33.8556 17.0741H44.7603L39.308 24.5402ZM11.9594 25.1926L17.4118 17.7266L22.8642 25.1926H11.9594Z" fill="#333333"/>
<path d="M52.1268 12.9092C52.3669 12.9092 52.6071 12.8176 52.7903 12.6342L55.4687 9.95341C56.3259 9.09553 54.9988 7.7697 54.1418 8.62758L51.4633 11.3084C50.9068 11.8654 51.3397 12.9092 52.1268 12.9092Z" fill="#333333"/>
<path d="M59.6729 25.5917C59.7534 25.5917 59.8351 25.5813 59.9166 25.5594L63.3192 24.6469C64.4904 24.3326 64.0047 22.5215 62.8332 22.8351L59.4306 23.7476C58.3814 24.0291 58.6252 25.5917 59.6729 25.5917Z" fill="#333333"/>
<path d="M55.0482 37.2856L53.3963 36.8426C52.2249 36.5289 51.7391 38.3403 52.9104 38.6544L54.5622 39.0974C55.6926 39.4001 56.2068 37.5963 55.0482 37.2856Z" fill="#333333"/>
<path d="M63.2633 39.4886L58.4278 38.1918C57.2564 37.8783 56.7706 39.6894 57.9418 40.0036L62.7773 41.3004C63.9077 41.6032 64.4219 39.7995 63.2633 39.4886Z" fill="#333333"/>
<path d="M46.9557 45.7585C46.0986 44.9005 44.7716 46.2264 45.6288 47.0843L49.9798 51.4394C50.8369 52.2974 52.1639 50.9714 51.3068 50.1135L46.9557 45.7585Z" fill="#333333"/>
<path d="M54.0121 52.8212C53.155 51.9633 51.828 53.2891 52.6851 54.147L53.9891 55.4522C54.8462 56.3102 56.1732 54.9843 55.316 54.1264L54.0121 52.8212Z" fill="#333333"/>
<path d="M39.4465 56.5696L39.1284 55.3812C38.8146 54.2098 37.0028 54.6948 37.3163 55.8663L37.6345 57.0547C37.9426 58.2057 39.761 57.745 39.4465 56.5696Z" fill="#333333"/>
<path d="M40.3986 60.1258C40.0849 58.9543 38.273 59.4394 38.5865 60.6109L39.3091 63.3102C39.433 63.7732 39.9983 64.0967 40.4577 63.9738C40.9581 63.8398 41.2551 63.3256 41.1213 62.8251L40.3986 60.1258Z" fill="#333333"/>
<path d="M37.7056 11.0675C38.165 11.1907 38.7303 10.8669 38.8541 10.4041L39.2873 8.78612C39.601 7.61473 37.7888 7.12952 37.4754 8.30103L37.0422 9.919C36.9083 10.4193 37.2053 10.9337 37.7056 11.0675Z" fill="#333333"/>
<path d="M39.0591 6.01201C39.5184 6.13494 40.0837 5.81155 40.2077 5.34847L41.3296 1.15775C41.6431 -0.0137703 39.8311 -0.498734 39.5176 0.672658L38.3957 4.86338C38.2618 5.36385 38.5588 5.87808 39.0591 6.01201Z" fill="#333333"/>
<path d="M11.2097 12.6342C12.0668 13.4922 13.3938 12.1663 12.5367 11.3084L9.85823 8.62769C9.0011 7.76969 7.67414 9.09565 8.53127 9.95353L11.2097 12.6342Z" fill="#333333"/>
<path d="M0.680798 24.6469L4.08343 25.5594C5.2138 25.8622 5.72803 24.0584 4.56939 23.7476L1.16676 22.8351C-0.00450424 22.5212 -0.490469 24.3327 0.680798 24.6469Z" fill="#333333"/>
<path d="M10.6037 36.8425L8.95182 37.2854C7.79606 37.5956 8.31741 39.3975 9.43778 39.0972L11.0896 38.6543C12.2609 38.3402 11.7749 36.5291 10.6037 36.8425Z" fill="#333333"/>
<path d="M5.57207 38.192L0.73669 39.4887C-0.419195 39.7989 0.102285 41.6007 1.22265 41.3005L6.05816 40.0037C7.22931 39.6896 6.74372 37.8788 5.57207 38.192Z" fill="#333333"/>
<path d="M17.0443 45.7585L12.6932 50.1135C11.8361 50.9713 13.1631 52.2973 14.0202 51.4393L18.3712 47.0843C19.2284 46.2263 17.9013 44.9006 17.0443 45.7585Z" fill="#333333"/>
<path d="M9.98779 52.8212L8.68384 54.1264C7.82671 54.9841 9.15367 56.3102 10.0108 55.4522L11.3148 54.147C12.172 53.2891 10.8449 51.9634 9.98779 52.8212Z" fill="#333333"/>
<path d="M26.0201 54.7178C25.5199 54.584 25.0055 54.8809 24.8715 55.3814L24.5533 56.5698C24.2485 57.7091 26.0482 58.2392 26.3654 57.0548L26.6835 55.8664C26.8176 55.366 26.5206 54.8518 26.0201 54.7178Z" fill="#333333"/>
<path d="M24.7501 59.4623C24.25 59.3285 23.7355 59.6253 23.6014 60.1258L22.8789 62.8251C22.574 63.9645 24.3738 64.4946 24.6909 63.3102L25.4135 60.6109C25.5474 60.1104 25.2504 59.5963 24.7501 59.4623Z" fill="#333333"/>
<path d="M25.3761 7.63765C24.8757 7.77158 24.5787 8.28581 24.7127 8.78615L25.1458 10.4041C25.4539 11.5552 27.2724 11.0943 26.9578 9.91903L26.5246 8.30107C26.3905 7.80072 25.876 7.50321 25.3761 7.63765Z" fill="#333333"/>
<path d="M23.7923 5.3485C24.1005 6.4995 25.919 6.03867 25.6043 4.86341L24.4824 0.672681C24.1688 -0.498836 22.3569 -0.0137468 22.6704 1.15777L23.7923 5.3485Z" fill="#333333"/>
</svg>
