<svg width="60" height="46" viewBox="0 0 60 46" fill="none" xmlns="http://www.w3.org/2000/svg">
<path d="M41.7446 0.00012207C39.5855 0.00012207 37.8298 1.75597 37.8298 3.91497V4.62263L14.9552 13.7718C14.5842 13.9215 14.3405 14.2807 14.3405 14.6809V28.3831C14.3405 28.7833 14.5842 29.1426 14.9552 29.2913L37.8298 38.4404V39.149C37.8298 41.3081 39.5856 43.0639 41.7446 43.0639C43.9036 43.0639 45.6595 41.308 45.6595 39.149V3.91497C45.6595 1.75586 43.9038 0.00012207 41.7446 0.00012207ZM43.7021 39.1489C43.7021 40.2284 42.8243 41.1064 41.7446 41.1064C40.665 41.1064 39.7872 40.2285 39.7872 39.1489V37.7787C39.7872 37.3773 39.5434 37.0182 39.1716 36.8695L16.2979 27.7204V15.3435L39.1716 6.19439C39.5436 6.0446 39.7872 5.6855 39.7872 5.28521V3.91497C39.7872 2.83547 40.665 1.95749 41.7446 1.95749C42.8243 1.95749 43.7021 2.83535 43.7021 3.91497V39.1489Z" fill="white"/>
<path d="M15.3192 13.7021H8.46818C4.15099 13.7021 0.638382 17.2148 0.638382 21.532C0.638382 25.8491 4.15099 29.3618 8.46818 29.3618H15.3192C15.8594 29.3618 16.2979 28.9243 16.2979 28.3831V14.6809C16.2979 14.1406 15.8594 13.7021 15.3192 13.7021ZM14.3405 27.4043H8.46818C5.22957 27.4043 2.59586 24.7706 2.59586 21.532C2.59586 18.2933 5.22957 15.6596 8.46818 15.6596H14.3405V27.4043Z" fill="white"/>
<path d="M50.8625 17.667L44.9901 15.7095C44.6907 15.6106 44.3647 15.6605 44.1082 15.8446C43.8528 16.0286 43.7021 16.3241 43.7021 16.6384V26.4256C43.7021 26.7397 43.8528 27.0353 44.1082 27.2203C44.2775 27.3416 44.4782 27.4042 44.6808 27.4042C44.7846 27.4042 44.8893 27.3876 44.9901 27.3533L50.8625 25.3958C51.2627 25.2637 51.5319 24.8898 51.5319 24.468V18.5957C51.5318 18.1739 51.2627 17.8011 50.8625 17.667ZM49.5744 23.7624L45.6596 25.067V17.9958L49.5744 19.3004V23.7624Z" fill="white"/>
<path d="M20.1218 40.6101L19.1392 39.6265L16.2686 28.1461C16.16 27.7106 15.7685 27.4042 15.3193 27.4042H7.48939C7.18993 27.4042 6.90801 27.5413 6.72209 27.7742C6.53617 28.0091 6.46758 28.3155 6.53617 28.6071L10.451 45.2454C10.5577 45.6947 10.958 46 11.4033 46C11.465 46 11.5266 45.9942 11.5892 45.9814L18.9394 44.5623C18.9491 44.5604 18.959 44.5584 18.9688 44.5565C19.3994 44.4595 19.7928 44.2443 20.1061 43.936C20.5523 43.4945 20.8 42.9073 20.8039 42.279C20.8079 41.6515 20.5671 41.0604 20.1218 40.6101ZM18.731 42.5421C18.6811 42.592 18.6185 42.6263 18.5499 42.6438L12.1422 43.8819L8.72545 29.3616H14.5548L17.307 40.3644C17.35 40.5367 17.4391 40.6943 17.5643 40.8195L18.7349 41.9901C18.8338 42.0889 18.8474 42.2054 18.8474 42.2671C18.8465 42.3268 18.8309 42.4432 18.731 42.5421Z" fill="white"/>
<path d="M59.3616 20.5532H53.4893V22.5107H59.3616V20.5532Z" fill="white"/>
<path d="M57.8768 8.95017L52.9838 11.8869L53.991 13.5651L58.8841 10.6284L57.8768 8.95017Z" fill="white"/>
<path d="M53.9997 29.5007L52.9926 31.1792L57.8862 34.1154L58.8934 32.4369L53.9997 29.5007Z" fill="white"/>
<path d="M39.7873 4.89365H37.8298V38.1701H39.7873V4.89365Z" fill="white"/>
<path d="M12.383 17.6171H10.4256V21.5319H12.383V17.6171Z" fill="white"/>
<path d="M8.46819 17.6171H6.51071V21.5319H8.46819V17.6171Z" fill="white"/>
</svg>
