<svg width="58" height="58" viewBox="0 0 58 58" fill="none" xmlns="http://www.w3.org/2000/svg">
<g clip-path="url(#clip0)">
<path d="M10.2011 44.8536C9.38907 44.8536 8.60849 45.0563 7.91597 45.4368C4.26796 40.7605 2.26562 34.9512 2.26562 29C2.26562 14.2584 14.2584 2.26562 29 2.26562C30.7921 2.26562 32.5834 2.44395 34.3242 2.79575C34.9366 2.91965 35.5349 2.52316 35.6588 1.90985C35.7827 1.29654 35.3862 0.699158 34.7729 0.574814C32.8847 0.193375 30.9426 0 29 0C21.254 0 13.9712 3.01656 8.49388 8.49388C3.01656 13.9712 0 21.254 0 29C0 35.5159 2.21252 41.8747 6.24065 46.9723C5.72203 47.7472 5.44325 48.6578 5.44325 49.6114C5.44325 50.8823 5.93842 52.0771 6.83714 52.9754C7.73543 53.8741 8.93019 54.3692 10.2011 54.3692C11.4719 54.3692 12.6667 53.8741 13.5654 52.9754C14.4642 52.0771 14.9589 50.8819 14.9589 49.611C14.9589 48.3406 14.4642 47.1454 13.5654 46.2471C12.6667 45.3483 11.4719 44.8536 10.2011 44.8536ZM11.9631 51.3735C11.4927 51.8443 10.8666 52.1036 10.2011 52.1036C9.53554 52.1036 8.90983 51.8443 8.43901 51.3735C7.96818 50.9027 7.70888 50.277 7.70888 49.6114C7.70888 48.9455 7.96818 48.3198 8.43901 47.8489C8.90939 47.3781 9.53554 47.1192 10.2011 47.1192C10.8666 47.1192 11.4923 47.3786 11.9631 47.8489C12.4339 48.3198 12.6933 48.9455 12.6933 49.6114C12.6933 50.277 12.4339 50.9027 11.9631 51.3735Z" fill="white"/>
<path d="M51.7585 11.0263C52.99 9.17886 52.7922 6.65305 51.1633 5.02419C50.2646 4.1259 49.0698 3.63074 47.7989 3.63074C46.5281 3.63074 45.3333 4.1259 44.4346 5.02419C43.5359 5.92291 43.0411 7.11768 43.0411 8.38855C43.0411 9.65942 43.5359 10.8542 44.4346 11.7529C45.3333 12.6516 46.5281 13.1464 47.7989 13.1464C48.6109 13.1464 49.3915 12.9437 50.084 12.5631C53.7321 17.24 55.7344 23.0487 55.7344 29C55.7344 43.7416 43.7416 55.7344 29 55.7344C27.2256 55.7344 25.4511 55.5596 23.7267 55.2144C23.1134 55.0918 22.5164 55.4897 22.3934 56.103C22.2708 56.7167 22.6686 57.3132 23.282 57.4362C25.1524 57.8102 27.0764 58 29 58C36.7461 58 44.0288 54.9834 49.5061 49.5061C54.9835 44.0288 58 36.746 58 29C58 22.4837 55.787 16.1244 51.7585 11.0263ZM46.0369 10.151C45.5661 9.68022 45.3068 9.05452 45.3068 8.38855C45.3068 7.72302 45.5661 7.09732 46.0369 6.6265C46.5073 6.15567 47.1334 5.89636 47.7989 5.89636C48.4645 5.89636 49.0906 6.15567 49.5614 6.6265C50.5327 7.59824 50.5327 9.17931 49.5614 10.151C49.0906 10.6214 48.4645 10.8807 47.7989 10.8807C47.133 10.8807 46.5073 10.6214 46.0369 10.151Z" fill="white"/>
<path d="M24.3254 48.4844C24.3254 49.1101 24.8329 49.6172 25.4582 49.6172H32.5414C33.1671 49.6172 33.6742 49.1101 33.6742 48.4844V46.2882C35.1637 45.8873 36.5876 45.297 37.9258 44.5262L39.4763 46.0767C39.6887 46.2891 39.9768 46.4086 40.2777 46.4086C40.5777 46.4086 40.8662 46.2891 41.0786 46.0763L46.0851 41.0662C46.5272 40.6237 46.5272 39.9064 46.0851 39.4644L44.5363 37.9156C45.3072 36.5775 45.8975 35.1535 46.2984 33.664H48.4861C49.1118 33.664 49.619 33.1569 49.619 32.5312V25.448C49.619 24.8223 49.1118 24.3152 48.4861 24.3152H46.298C45.897 22.8262 45.3072 21.4022 44.5363 20.0641L46.0767 18.5237C46.2891 18.3113 46.4086 18.0228 46.4086 17.7223C46.4081 17.4219 46.2887 17.1333 46.0763 16.9209L41.0658 11.9144C40.6237 11.4724 39.9064 11.4724 39.4639 11.9149L37.9258 13.4535C36.5876 12.6826 35.1637 12.0923 33.6742 11.6914V9.51562C33.6742 8.88992 33.1671 8.38281 32.5414 8.38281H25.4582C24.8329 8.38281 24.3254 8.88992 24.3254 9.51562V11.6919C22.8364 12.0923 21.4124 12.6826 20.0742 13.4535L18.5356 11.9149C18.0936 11.4728 17.3763 11.4724 16.9338 11.9144L11.9237 16.9214C11.7109 17.1338 11.5914 17.4219 11.5914 17.7223C11.5914 18.0228 11.7109 18.3113 11.9233 18.5237L13.4637 20.0641C12.6928 21.4022 12.1025 22.8257 11.7016 24.3152H9.51784C8.89214 24.3152 8.38503 24.8223 8.38503 25.4476L8.38104 32.5307C8.3806 32.8312 8.50008 33.1197 8.71248 33.3321C8.92488 33.5445 9.21295 33.664 9.51386 33.664H11.7016C12.1025 35.1535 12.6928 36.5775 13.4637 37.9156L11.9149 39.4644C11.4728 39.9064 11.4724 40.6237 11.9149 41.0662L16.9214 46.0763C17.1338 46.2887 17.4219 46.4086 17.7223 46.4086H17.7228C18.0232 46.4086 18.3113 46.2891 18.5237 46.0767L20.0738 44.5262C21.4124 45.297 22.8364 45.8873 24.3254 46.2882V48.4844ZM20.5181 42.1437C20.0698 41.8539 19.48 41.9167 19.1021 42.2942L17.7228 43.6735L14.3177 40.2657L15.6956 38.8873C16.0731 38.5099 16.1359 37.92 15.8461 37.4718C14.819 35.8823 14.0969 34.1401 13.7004 32.2931C13.588 31.7714 13.1269 31.3984 12.5928 31.3984H10.6471L10.6498 26.5808H12.5928C13.1269 26.5808 13.588 26.2082 13.7004 25.6861C14.0969 23.8395 14.819 22.0974 15.8461 20.5079C16.1359 20.0596 16.0731 19.4698 15.6956 19.0923L14.3265 17.7228L17.7343 14.3177L19.1021 15.6859C19.48 16.0634 20.0694 16.1258 20.5181 15.8364C22.1071 14.8093 23.8492 14.0871 25.6963 13.6907C26.218 13.5783 26.591 13.1167 26.591 12.5831V10.6484H31.4086V12.5826C31.4086 13.1167 31.7811 13.5783 32.3033 13.6902C34.1499 14.0871 35.8925 14.8089 37.4815 15.8359C37.9297 16.1258 38.5196 16.0634 38.8971 15.6855L40.2653 14.3177L43.673 17.7228L42.3039 19.0919C41.926 19.4698 41.8636 20.0596 42.1535 20.5079C43.1805 22.0974 43.9022 23.8395 44.2992 25.6861C44.4111 26.2082 44.8727 26.5808 45.4068 26.5808H47.3533V31.3984H45.4068C44.8727 31.3984 44.4116 31.7714 44.2992 32.2931C43.9027 34.1397 43.1805 35.8823 42.1535 37.4713C41.8636 37.92 41.9265 38.5099 42.3039 38.8873L43.6819 40.2653L40.2768 43.673L38.8975 42.2942C38.5196 41.9163 37.9297 41.8539 37.4815 42.1437C35.892 43.1708 34.1499 43.8925 32.3033 44.2894C31.7811 44.4018 31.4086 44.8629 31.4086 45.397V47.3516H26.591V45.397C26.591 44.8634 26.218 44.4018 25.6963 44.2894C23.8497 43.8929 22.1075 43.1708 20.5181 42.1437Z" fill="white"/>
<path d="M38.3603 29C38.3603 23.8386 34.1614 19.6397 29 19.6397C23.8386 19.6397 19.6397 23.8386 19.6397 29C19.6397 34.1614 23.8386 38.3603 29 38.3603C34.1614 38.3603 38.3603 34.1614 38.3603 29ZM21.9053 29C21.9053 25.0878 25.0878 21.9053 29 21.9053C32.9122 21.9053 36.0947 25.0883 36.0947 29C36.0947 32.9118 32.9122 36.0947 29 36.0947C25.0878 36.0947 21.9053 32.9122 21.9053 29Z" fill="white"/>
<path d="M39.4307 4.28435C39.729 4.28435 40.021 4.1631 40.2317 3.95247C40.4423 3.74051 40.5635 3.44846 40.5635 3.15021C40.5635 2.85373 40.4427 2.56123 40.2317 2.34927C40.021 2.13864 39.729 2.0174 39.4307 2.0174C39.1316 2.0174 38.8409 2.13864 38.6302 2.34927C38.4192 2.56123 38.2979 2.8524 38.2979 3.15021C38.2979 3.44934 38.4192 3.74051 38.6302 3.95247C38.8409 4.1631 39.1316 4.28435 39.4307 4.28435Z" fill="white"/>
<path d="M18.6188 53.736C18.321 53.736 18.0285 53.8573 17.8179 54.0679C17.6073 54.2785 17.486 54.571 17.486 54.8688C17.486 55.168 17.6073 55.4591 17.8179 55.6698C18.0285 55.8804 18.321 56.0016 18.6188 56.0016C18.9166 56.0016 19.2091 55.8804 19.4198 55.6698C19.6304 55.4591 19.7516 55.1666 19.7516 54.8688C19.7516 54.571 19.6304 54.2785 19.4198 54.0679C19.2091 53.8573 18.9166 53.736 18.6188 53.736Z" fill="white"/>
</g>
<defs>
<clipPath id="clip0">
<rect width="58" height="58" fill="white"/>
</clipPath>
</defs>
</svg>
