<svg width="63" height="57" viewBox="0 0 63 57" fill="none" xmlns="http://www.w3.org/2000/svg">
<path d="M34.2501 56.3746C33.7381 56.3746 33.323 55.9595 33.323 55.4475V52.9822C33.323 52.6291 33.0357 52.3418 32.6826 52.3418H30.1936C29.8405 52.3418 29.5532 52.6291 29.5532 52.9822V55.4475C29.5532 55.9595 29.1381 56.3746 28.6261 56.3746C28.1141 56.3746 27.699 55.9595 27.699 55.4475V52.9822C27.699 51.6067 28.8181 50.4875 30.1936 50.4875H32.6826C34.0581 50.4875 35.1773 51.6067 35.1773 52.9822V55.4475C35.1773 55.9595 34.7623 56.3746 34.2501 56.3746Z" fill="#333333"/>
<path d="M40.3523 22.4835C40.0477 22.0719 39.4671 21.9855 39.0554 22.29C38.6439 22.5947 38.5574 23.1754 38.8619 23.5869L43.4659 29.805C43.978 30.4967 43.9409 31.5384 43.3816 32.1768L38.4214 37.8374H24.455L19.4948 32.1768C18.9354 31.5384 18.8983 30.4967 19.4104 29.805L28.5509 17.4597V24.4941C27.3923 25.3847 26.7149 26.7467 26.7149 28.2333C26.7149 30.8377 28.8338 32.9566 31.4382 32.9566C34.0426 32.9566 36.1614 30.8377 36.1614 28.2333C36.1614 26.8136 35.5296 25.4878 34.449 24.5946V17.6267L36.4849 20.3764C36.7896 20.788 37.3702 20.8744 37.7818 20.5698C38.1933 20.2651 38.2798 19.6845 37.9752 19.273L33.9984 13.9017C33.3724 13.0562 32.4392 12.5712 31.4383 12.5712C30.4373 12.5712 29.5041 13.0562 28.8781 13.9017L17.9202 28.7017C16.8926 30.0897 16.97 32.109 18.1003 33.399L22.237 38.1196C21.204 38.6012 20.4861 39.6489 20.4861 40.8617V45.2849C20.4861 46.639 21.3807 47.7881 22.6099 48.1723L22.8629 55.4799C22.8802 55.9808 23.2916 56.375 23.7889 56.375C23.7998 56.375 23.8106 56.3749 23.8215 56.3745C24.3333 56.3567 24.7337 55.9276 24.716 55.4158L24.47 48.3092H38.5302L38.2842 55.4158C38.2665 55.9276 38.667 56.3567 39.1787 56.3745C39.1895 56.3749 39.2004 56.375 39.2113 56.375C39.7085 56.375 40.12 55.9808 40.1373 55.4799L40.3917 48.1299C41.5561 47.709 42.3905 46.5927 42.3905 45.2849V40.8617C42.3905 39.6489 41.6725 38.6012 40.6396 38.1196L44.7762 33.399C45.9066 32.1092 45.984 30.0897 44.9563 28.7017L40.3523 22.4835ZM31.4382 14.4254C31.8513 14.4254 32.2313 14.6312 32.508 15.0049L32.5947 15.1221V25.0605C32.5947 25.3724 32.7516 25.6636 33.0122 25.835C33.823 26.3685 34.3071 27.2652 34.3071 28.2331C34.3071 29.815 33.0201 31.102 31.4382 31.102C29.8562 31.102 28.5692 29.815 28.5692 28.2331C28.5692 27.2193 29.0882 26.3006 29.9575 25.7753C30.2354 25.6074 30.4052 25.3064 30.4052 24.9818V14.96C30.6784 14.6159 31.0426 14.4254 31.4382 14.4254ZM40.5362 45.2847C40.5362 45.9297 40.0114 46.4546 39.3663 46.4546H23.5101C22.865 46.4546 22.3402 45.9297 22.3402 45.2847V40.8615C22.3402 40.2164 22.8651 39.6915 23.5101 39.6915H39.3663C40.0115 39.6915 40.5362 40.2164 40.5362 40.8615V45.2847Z" fill="#333333"/>
<path d="M12.9877 22.7679C13.1095 19.8305 13.9265 16.9545 15.3725 14.406C15.6251 13.9606 15.469 13.3948 15.0236 13.1421C14.5782 12.8893 14.0124 13.0455 13.7597 13.4909C12.1571 16.3153 11.2561 19.5041 11.132 22.7589C9.53197 23.1657 8.34499 24.6181 8.34499 26.343C8.34499 28.3819 10.0038 30.0408 12.0428 30.0408C14.0818 30.0408 15.7406 28.3819 15.7406 26.343C15.7406 24.6305 14.5704 23.1866 12.9877 22.7679ZM12.0428 28.1865C11.0263 28.1865 10.1993 27.3595 10.1993 26.343C10.1993 25.3264 11.0263 24.4994 12.0428 24.4994C13.0593 24.4994 13.8863 25.3264 13.8863 26.343C13.8863 27.3595 13.0593 28.1865 12.0428 28.1865Z" fill="#333333"/>
<path d="M61.0369 0.625366H58.0575C56.9751 0.625366 56.0944 1.50602 56.0944 2.58843V3.15102H34.9528V2.58843C34.9528 1.50602 34.0721 0.625366 32.9897 0.625366H30.0103C28.9279 0.625366 28.0472 1.50602 28.0472 2.58843V3.15102H6.90557V2.58843C6.90557 1.50602 6.02491 0.625366 4.9425 0.625366H1.96305C0.880644 0.625366 -1.52588e-05 1.50602 -1.52588e-05 2.58843V5.56788C-1.52588e-05 6.65029 0.880644 7.53095 1.96305 7.53095H4.9425C6.02491 7.53095 6.90557 6.65029 6.90557 5.56788V5.0053H23.0003C20.4264 6.18758 18.1028 7.90501 16.1948 10.0725C15.8564 10.4569 15.8936 11.0427 16.2781 11.381C16.4542 11.5361 16.6727 11.6123 16.8904 11.6123C17.1475 11.6123 17.4034 11.506 17.5866 11.2978C20.3282 8.18353 24.0113 6.08992 28.0472 5.32831V5.56801C28.0472 6.65041 28.9279 7.53107 30.0103 7.53107H32.9897C34.0721 7.53107 34.9528 6.65041 34.9528 5.56801V5.32819C43.3696 6.91409 49.6581 14.1724 50.0134 22.7678C48.4302 23.1861 47.2594 24.6302 47.2594 26.3431C47.2594 28.3821 48.9182 30.0409 50.9572 30.0409C52.9962 30.0409 54.655 28.3821 54.655 26.3431C54.655 24.6185 53.4681 23.1661 51.8683 22.7591C51.5719 14.9602 46.8351 8.15188 40.0001 5.00554H56.0944V5.56813C56.0944 6.65053 56.9751 7.53119 58.0575 7.53119H61.0369C62.1193 7.53119 63 6.65053 63 5.56813V2.58843C63 1.50602 62.1193 0.625366 61.0369 0.625366ZM5.05129 5.56788C5.05129 5.62784 5.00246 5.67667 4.9425 5.67667H1.96305C1.90309 5.67667 1.85426 5.62784 1.85426 5.56788V2.58843C1.85426 2.52847 1.90309 2.47964 1.96305 2.47964H4.9425C5.00246 2.47964 5.05129 2.52847 5.05129 2.58843V5.56788ZM52.8007 26.3428C52.8007 27.3594 51.9737 28.1864 50.9572 28.1864C49.9407 28.1864 49.1137 27.3594 49.1137 26.3428C49.1137 25.3263 49.9407 24.4993 50.9572 24.4993C51.9737 24.4993 52.8007 25.3263 52.8007 26.3428ZM33.0985 5.56788C33.0985 5.62784 33.0497 5.67667 32.9897 5.67667H30.0103C29.9503 5.67667 29.9015 5.62784 29.9015 5.56788V2.58843C29.9015 2.52847 29.9503 2.47964 30.0103 2.47964H32.9897C33.0497 2.47964 33.0985 2.52847 33.0985 2.58843V5.56788ZM61.1457 5.56788C61.1457 5.62784 61.0969 5.67667 61.0369 5.67667H58.0575C57.9975 5.67667 57.9487 5.62784 57.9487 5.56788V2.58843C57.9487 2.52847 57.9975 2.47964 58.0575 2.47964H61.0369C61.0969 2.47964 61.1457 2.52847 61.1457 2.58843V5.56788Z" fill="#333333"/>
</svg>
