<svg width="16" height="16" viewBox="0 0 16 16" fill="none" xmlns="http://www.w3.org/2000/svg">
<path d="M8 3.99423C5.7832 3.99423 3.99414 5.7833 3.99414 8.00009C3.99414 10.2169 5.7832 12.0059 8 12.0059C10.2168 12.0059 12.0059 10.2169 12.0059 8.00009C12.0059 5.7833 10.2168 3.99423 8 3.99423ZM8 10.6036C6.56641 10.6036 5.39648 9.43369 5.39648 8.00009C5.39648 6.5665 6.56641 5.39658 8 5.39658C9.43359 5.39658 10.6035 6.5665 10.6035 8.00009C10.6035 9.43369 9.43359 10.6036 8 10.6036ZM12.1699 2.89658C11.6523 2.89658 11.2344 3.31455 11.2344 3.83212C11.2344 4.3497 11.6523 4.76767 12.1699 4.76767C12.6875 4.76767 13.1055 4.35165 13.1055 3.83212C13.1056 3.70922 13.0815 3.5875 13.0346 3.47392C12.9876 3.36035 12.9187 3.25715 12.8318 3.17025C12.7449 3.08334 12.6417 3.01444 12.5281 2.96748C12.4145 2.92052 12.2928 2.89642 12.1699 2.89658ZM15.8086 8.00009C15.8086 6.92197 15.8184 5.85361 15.7578 4.77744C15.6973 3.52744 15.4121 2.41806 14.498 1.504C13.582 0.587983 12.4746 0.30478 11.2246 0.244233C10.1465 0.183686 9.07812 0.193452 8.00195 0.193452C6.92383 0.193452 5.85547 0.183686 4.7793 0.244233C3.5293 0.30478 2.41992 0.589936 1.50586 1.504C0.589845 2.42001 0.306642 3.52744 0.246095 4.77744C0.185548 5.85556 0.195314 6.92392 0.195314 8.00009C0.195314 9.07626 0.185548 10.1466 0.246095 11.2227C0.306642 12.4727 0.591798 13.5821 1.50586 14.4962C2.42188 15.4122 3.5293 15.6954 4.7793 15.7559C5.85742 15.8165 6.92578 15.8067 8.00195 15.8067C9.08008 15.8067 10.1484 15.8165 11.2246 15.7559C12.4746 15.6954 13.584 15.4102 14.498 14.4962C15.4141 13.5802 15.6973 12.4727 15.7578 11.2227C15.8203 10.1466 15.8086 9.07822 15.8086 8.00009ZM14.0898 12.6056C13.9473 12.961 13.7754 13.2267 13.5 13.5001C13.2246 13.7755 12.9609 13.9474 12.6055 14.0899C11.5781 14.4981 9.13867 14.4063 8 14.4063C6.86133 14.4063 4.41992 14.4981 3.39258 14.0919C3.03711 13.9493 2.77149 13.7774 2.49805 13.502C2.22266 13.2267 2.05078 12.963 1.9082 12.6075C1.50195 11.5782 1.59375 9.13876 1.59375 8.00009C1.59375 6.86142 1.50195 4.42001 1.9082 3.39267C2.05078 3.0372 2.22266 2.77158 2.49805 2.49814C2.77344 2.2247 3.03711 2.05087 3.39258 1.9083C4.41992 1.50205 6.86133 1.59384 8 1.59384C9.13867 1.59384 11.5801 1.50205 12.6074 1.9083C12.9629 2.05087 13.2285 2.22275 13.502 2.49814C13.7773 2.77353 13.9492 3.0372 14.0918 3.39267C14.498 4.42001 14.4062 6.86142 14.4062 8.00009C14.4062 9.13876 14.498 11.5782 14.0898 12.6056Z" fill="#333333"/>
</svg>
