<svg width="18" height="16" viewBox="0 0 18 16" fill="none" xmlns="http://www.w3.org/2000/svg">
<path d="M17.9375 2.46349C17.2801 2.74708 16.5647 2.95118 15.8277 3.03067C16.5928 2.57614 17.1658 1.85805 17.4391 1.01114C16.7211 1.43823 15.9346 1.73771 15.1145 1.8963C14.7717 1.52983 14.3571 1.23789 13.8965 1.03866C13.436 0.839428 12.9393 0.737182 12.4375 0.73829C10.4072 0.73829 8.77443 2.38399 8.77443 4.40352C8.77443 4.68712 8.8088 4.97071 8.86466 5.24356C5.82462 5.08458 3.11329 3.63224 1.31075 1.4086C0.982313 1.96959 0.810198 2.60835 0.812317 3.25841C0.812317 4.53028 1.459 5.65177 2.44513 6.31134C1.86399 6.28845 1.29645 6.12872 0.788684 5.84513V5.89024C0.788684 7.6713 2.04767 9.14728 3.7256 9.48673C3.41055 9.56856 3.08645 9.61043 2.76095 9.61134C2.52247 9.61134 2.29689 9.58771 2.06915 9.55548C2.53322 11.0078 3.88458 12.0627 5.49376 12.0971C4.23478 13.0832 2.65782 13.6633 0.94552 13.6633C0.638294 13.6633 0.3547 13.6525 0.0603638 13.6182C1.68458 14.6602 3.61173 15.2617 5.68712 15.2617C12.4246 15.2617 16.1113 9.68009 16.1113 4.83536C16.1113 4.67638 16.1113 4.51739 16.1006 4.35841C16.8139 3.83634 17.4391 3.18966 17.9375 2.46349Z" fill="#333333"/>
</svg>
