<svg width="20" height="15" viewBox="0 0 20 15" fill="none" xmlns="http://www.w3.org/2000/svg">
<path d="M10.0476 0.0455165C11.6508 0.0455165 13.0079 0.0758962 14.1191 0.136656C15.2302 0.197415 16.1508 0.318934 16.881 0.501213C17.6111 0.683491 18.1746 0.934124 18.5714 1.25311C18.9683 1.5721 19.2619 2.00501 19.4524 2.55185C19.6429 3.09868 19.7619 3.75185 19.8095 4.51134C19.8572 5.27083 19.873 6.18982 19.8572 7.2683L19.8095 10.0253C19.7937 10.7848 19.6746 11.4379 19.4524 11.9848C19.2302 12.5316 18.9365 12.9569 18.5714 13.2607C18.2064 13.5645 17.6429 13.8227 16.881 14.0354C16.1191 14.248 15.1984 14.3696 14.1191 14.3999C13.0397 14.4303 11.6825 14.4607 10.0476 14.4911C8.41271 14.5215 7.05556 14.4911 5.9762 14.3999C4.89683 14.3088 3.9762 14.1873 3.21429 14.0354C2.45239 13.8835 1.8889 13.6253 1.52382 13.2607C1.15874 12.8961 0.865088 12.4708 0.642866 11.9848C0.420644 11.4987 0.309533 10.8455 0.309533 10.0253C0.309533 9.20501 0.285723 8.28602 0.238104 7.2683C0.190485 6.25058 0.214294 5.33159 0.309533 4.51134C0.404771 3.69109 0.515882 3.03792 0.642866 2.55185C0.76985 2.06577 1.0635 1.63286 1.52382 1.25311C1.98414 0.873365 2.54763 0.622732 3.21429 0.501213C3.88096 0.379694 4.8016 0.258175 5.9762 0.136656C7.1508 0.0151367 8.50795 -0.015243 10.0476 0.0455165ZM13.1905 7.58729C13.381 7.49615 13.4762 7.38982 13.4762 7.2683C13.4762 7.14678 13.381 7.04045 13.1905 6.94931L8.78572 4.98982C8.59525 4.89868 8.43652 4.89109 8.30953 4.96703C8.18255 5.04298 8.11112 5.19488 8.09525 5.42273V9.11387C8.09525 9.32653 8.16668 9.47083 8.30953 9.54678C8.45239 9.62273 8.61112 9.62273 8.78572 9.54678L13.1905 7.58729Z" fill="#333333"/>
</svg>
