<svg width="16" height="18" viewBox="0 0 16 18" fill="none" xmlns="http://www.w3.org/2000/svg">
<path d="M8 0.25C9.98912 0.25 11.8968 1.04018 13.3033 2.4467C14.7098 3.85322 15.5 5.76088 15.5 7.75C15.5 11.3337 13.0812 14.6325 8.335 17.6525C8.23484 17.7161 8.11864 17.7499 8 17.7499C7.88136 17.7499 7.76516 17.7161 7.665 17.6525C2.91875 14.6325 0.5 11.3337 0.5 7.75C0.5 5.76088 1.29018 3.85322 2.6967 2.4467C4.10322 1.04018 6.01088 0.25 8 0.25ZM8 5.25C7.33696 5.25 6.70107 5.51339 6.23223 5.98223C5.76339 6.45107 5.5 7.08696 5.5 7.75C5.5 8.41304 5.76339 9.04892 6.23223 9.51777C6.70107 9.98661 7.33696 10.25 8 10.25C8.66304 10.25 9.29893 9.98661 9.76777 9.51777C10.2366 9.04892 10.5 8.41304 10.5 7.75C10.5 7.08696 10.2366 6.45107 9.76777 5.98223C9.29893 5.51339 8.66304 5.25 8 5.25Z" fill="#FFCC3D"/>
</svg>
